<?xml version="1.0" encoding="utf-8"?>
<svg viewBox="-1820.443 -205.277 1083.977 1094.708" width="1083.977" height="1094.708" xmlns="http://www.w3.org/2000/svg">
  <g transform="matrix(1.014315, 0, 0, 0.91028, -1820.443294, -202.546295)">
    <ellipse cx="475.265" cy="526.582" rx="475.265" ry="529.582" style="fill:rgb(255,174,210);"/>
    <clipPath id="_clip1">
      <ellipse cx="475.265" cy="526.582" rx="475.265" ry="529.582"/>
    </clipPath>
    <g clip-path="url(#_clip1)">
      <g transform="matrix(1.97141,0,0,2.19671,-568.494,-623.971)">
        <path d="M701.978,331.017C728.812,372.909 744.37,422.717 744.37,476.159C744.37,624.977 623.729,745.617 474.912,745.617C423.228,745.617 374.949,731.054 333.935,705.825C381.824,780.588 465.625,830.14 561,830.14C709.817,830.14 830.458,709.5 830.458,560.682C830.458,463.549 779.056,378.432 701.978,331.017Z" style="fill:rgb(255,151,197);fill-rule:nonzero;"/>
      </g>
    </g>
  </g>
  <g transform="matrix(1.634165, 0, 0, 1.63416, -2265.292311, -661.166595)">
    <path d="M338.744,585.655C338.744,454.288 445.238,347.794 576.605,347.794C653.392,347.794 721.667,384.188 765.156,440.658C724.083,369.353 647.099,321.349 558.9,321.349C427.533,321.349 321.039,427.843 321.039,559.21C321.039,613.792 339.437,664.068 370.351,704.208C350.246,669.307 338.744,628.825 338.744,585.655Z" style="fill:rgb(255,189,218);fill-rule:nonzero;"/>
  </g>
  <g transform="matrix(1.009522, 0, 0, 1.00952, -1857.261449, -89.201599)">
    <g transform="matrix(1.5664,0,0,1.5664,-1078.1,-557.853)">
      <path d="M1003.52,396.851C1016.11,467.202 1071.88,446.649 1094.26,497.061C1104.13,519.285 1106.03,550.439 1087.47,584.025C1106.63,573.192 1127.91,529.618 1102.42,482.547C1121.13,490.442 1134.66,507.614 1140.96,534.87C1149.68,572.539 1131.38,616.064 1087.39,642.851C1052.38,664.166 1008.02,676.851 975.087,679.513C1012.89,683.819 1125.35,670.898 1160.28,578.541C1220.93,607.687 1233.67,698.303 1183.3,738.3C1128.41,781.893 1041.16,785.651 996.93,777.608C1040.63,772.131 1111.35,733.936 1124.87,666.117C1113.8,681.3 1085.02,734.315 1021.24,757.739C950.305,783.787 785.303,765.329 824.145,659.891C828.929,687.646 886.136,753.217 991.597,721.388C947.63,730.039 907.127,723.312 881.237,705.047C843.18,678.196 820.75,636.21 846.974,594.33C853.044,584.634 861.37,575.272 870.824,565.733C868.712,631.895 926.878,652.961 942.587,652.961C913.372,637.132 898.642,616.322 891.711,596.82C871.712,540.558 908.12,537.219 938.115,494.082C980.897,555.487 981.827,584.267 940.867,618.502C967.123,606.346 983.193,588.485 984.694,568.438C989.681,501.806 916.425,490.735 962.142,428.26C970.535,416.789 979.47,409.917 998.317,394.891C999.233,394.16 1000.38,393.98 1001.47,394.393C1002.57,394.806 1003.31,395.697 1003.52,396.851Z" style="fill:rgb(255,253,250);"/>
    </g>
    <g transform="matrix(1.5664,0,0,1.5664,-1078.1,-557.853)">
      <path d="M976.374,679.646C1015.29,683.514 1125.26,669.932 1160.05,579.114L1160.27,578.863C1134.03,685.804 1013.57,685.899 976.042,679.671L976.374,679.646Z" style="fill:rgb(234,234,234);"/>
    </g>
    <g transform="matrix(1.5664,0,0,1.5664,-1078.1,-557.853)">
      <path d="M942.411,652.864L942.152,652.722L942.53,652.861L942.411,652.864ZM870.812,565.745L870.824,565.733C868.777,629.877 923.386,651.633 941.033,652.901C884.571,654.37 857.91,607.6 870.812,565.745Z" style="fill:rgb(234,234,234);"/>
    </g>
    <g transform="matrix(1.5664,0,0,1.5664,-1078.1,-557.853)">
      <path d="M941.32,652.266C912.944,636.526 898.541,616.037 891.711,596.82C871.838,540.912 907.664,537.256 937.549,494.882C936.41,513.666 923.332,524.405 912.685,537.87C881.213,577.68 908.469,623.827 941.32,652.266Z" style="fill:rgb(234,234,234);"/>
    </g>
    <g transform="matrix(1.5664,0,0,1.5664,-1078.1,-557.853)">
      <path d="M965.508,602.928C976.982,592.894 983.746,581.103 984.694,568.438C989.681,501.806 916.425,490.735 962.142,428.26C968.854,419.087 975.914,412.854 988.109,403.041C963.382,430.709 958.505,458.127 979.077,491.429C987.566,505.172 997.053,519.61 998.633,542.054C1000.07,562.381 993.451,585.356 965.508,602.928Z" style="fill:rgb(234,234,234);"/>
    </g>
    <g transform="matrix(1.5664,0,0,1.5664,-1078.1,-557.853)">
      <path d="M990.915,721.518C947.212,729.966 906.993,723.217 881.237,705.047C845.206,679.626 823.193,640.637 843.201,601.019C832.651,675.447 908.068,731.121 990.915,721.518Z" style="fill:rgb(234,234,234);"/>
    </g>
    <g transform="matrix(1.5664,0,0,1.5664,-1078.1,-557.853)">
      <path d="M1112.86,683.705C1097.09,706.119 1068.96,740.213 1021.24,757.739C968.984,776.928 865.696,771.957 830.439,725.863C908.895,781.991 1052.54,759.906 1112.86,683.705ZM1124.65,666.419L1124.06,667.25C1124.29,666.856 1124.53,666.473 1124.75,666.077L1124.65,666.419Z" style="fill:rgb(239,239,239);"/>
    </g>
    <g transform="matrix(1.5664,0,0,1.5664,-1078.1,-557.853)">
      <path d="M1160.2,578.754L1160.28,578.541C1220.93,607.687 1233.67,698.303 1183.3,738.3C1128.41,781.893 1041.16,785.651 996.93,777.608C997.307,777.56 997.692,777.505 998.074,777.453C1143.19,777.948 1237.21,688.311 1160.2,578.754Z" style="fill:rgb(239,239,239);"/>
    </g>
    <g transform="matrix(1.5664,0,0,1.5664,-1078.1,-557.853)">
      <path d="M1103.86,483.179C1121.83,491.338 1134.82,508.319 1140.96,534.87C1149.68,572.539 1131.38,616.064 1087.39,642.851C1052.58,664.045 1008.52,676.704 975.65,679.465L975.279,679.456C975.279,679.456 1049.14,669.004 1096.36,625.274C1137.46,587.215 1145.94,521.895 1103.86,483.179Z" style="fill:rgb(239,239,239);"/>
    </g>
    <g transform="matrix(1.5664,0,0,1.5664,-1078.1,-557.853)">
      <path d="M1003.52,396.851C1016.11,467.202 1071.88,446.649 1094.26,497.061C1104.11,519.23 1106.02,550.286 1087.61,583.777L1087.38,584.028C1108.33,448.483 985.735,489.969 997.802,395.301L998.317,394.891C999.233,394.16 1000.38,393.98 1001.47,394.393C1002.57,394.806 1003.31,395.697 1003.52,396.851Z" style="fill:rgb(239,239,239);"/>
    </g>
  </g>
</svg>